<svg width="10" height="10" viewBox="0 0 10 10" fill="none" xmlns="http://www.w3.org/2000/svg">
<g clip-path="url(#clip0_8716_1441)">
<path d="M1.97306 1.12109L1.83164 0.979669L1.69022 1.12109L1.12147 1.68984L0.980048 1.83126L1.12147 1.97268L4.14894 5.00015L1.10258 8.05248L0.961436 8.1939L1.10272 8.33519L1.66522 8.89769L1.8065 9.03897L1.94792 8.89782L5.00025 5.85147L8.04647 8.89769L8.18789 9.03911L8.32931 8.89769L8.89806 8.32894L9.03948 8.18751L8.89806 8.04609L5.85198 5.00001L8.87931 1.97268L9.02073 1.83126L8.87931 1.68984L8.31056 1.12109L8.16914 0.979669L8.02772 1.12109L5.00039 4.14842L1.97306 1.12109Z" fill="#666D73" stroke="#666D73" stroke-width="0.4"/>
</g>
<defs>
<clipPath id="clip0_8716_1441">
<rect width="10" height="10" fill="white"/>
</clipPath>
</defs>
</svg>
