<svg width="78" height="78" viewBox="0 0 78 78" fill="none" xmlns="http://www.w3.org/2000/svg">
<path fill-rule="evenodd" clip-rule="evenodd" d="M54.1622 6.53359C58.8373 6.24138 63.4478 7.86469 66.9217 11.0464C70.1035 14.5203 71.7265 19.1306 71.4668 23.8382V54.1619C71.759 58.8695 70.1035 63.4796 66.9542 66.9536C63.48 70.1353 58.8373 71.7587 54.1622 71.4665H23.8383C19.1307 71.7587 14.5204 70.1353 11.0464 66.9536C7.86469 63.4796 6.24138 58.8695 6.53359 54.1619V23.8382C6.24138 19.1306 7.86469 14.5203 11.0464 11.0464C14.5204 7.86469 19.1307 6.24138 23.8383 6.53359H54.1622ZM35.6886 54.7462L57.5386 32.8315C59.5192 30.8184 59.5192 27.5718 57.5386 25.5914L53.3182 21.3707C51.3051 19.3578 48.0584 19.3578 46.0457 21.3707L43.8701 23.5784C43.5454 23.9031 43.5454 24.455 43.8701 24.7797C43.8701 24.7797 49.0324 29.9094 49.1299 30.0393C49.4871 30.4289 49.7143 30.9483 49.7143 31.5327C49.7143 32.7015 48.7727 33.6755 47.5715 33.6755C47.0194 33.6755 46.5 33.4483 46.1428 33.0912L40.7209 27.7017C40.4612 27.4419 40.0068 27.4419 39.7468 27.7017L24.2604 43.1883C23.189 44.2595 22.5721 45.6882 22.5396 47.214L22.3448 54.9084C22.3448 55.3306 22.4747 55.7203 22.7669 56.0124C23.0591 56.3046 23.4487 56.4668 23.8708 56.4668H31.5004C33.059 56.4668 34.5524 55.8499 35.6886 54.7462Z" fill="white"/>
</svg>
